# xmcd
#
# Track frame offsets: 
#        150
#        10900
#        23325
#        35763
#        46770
#        58275
#        69882
#        81678
#        95412
#        108540
#        119630
#        132343
#        144375
#        158289
#        171985
#        190323
#        202703
#        215045
#        227038
#        237868
#        250899
#        262796
#        274983
#        287975
#        301063
#        312137
#
# Disc length: 4273 seconds
#
# Revision: 3
# Processed by: cddbd v1.5.2PL0 Copyright (c) Steve Scherf et al.
# Submitted via: ExactAudioCopyFreeDBPlugin 1.0
#
DISCID=6f10af1a
DTITLE=VVAA - The complete Motown singles,  vol. 1: 1959-61 [CD3)
DYEAR=2004
DGENRE=R&B/Soul
TTITLE0=JIMMY RUFFIN - Don't feel sorry for me
TTITLE1=JIMMY RUFFIN - Heart
TTITLE2=DEBBIE DEAN - Don't let him shop around
TTITLE3=DEBBIE DEAN - A new girl
TTITLE4=THE MIRACLES - Ain't it baby
TTITLE5=THE MIRACLES - The only one I love
TTITLE6=BARRETT STRONG - Money and me
TTITLE7=BARRETT STRONG - You've got what it takes
TTITLE8=LITTLE IVA and HER BAND - When I needed you
TTITLE9=LITTLE IVA and HER BAND - Continental strut
TTITLE10=THE CONTOURS - Whole lotta woman [regional version]
TTITLE11=THE CONTOURS - Come on and be mine
TTITLE12=THE SUPREMES - I want a guy
TTITLE13=THE SUPREMES - Never again
TTITLE14=THE GOSPEL STARS - He lifted me [unedited version]
TTITLE15=THE GOSPEL STARS - Behold the saints of God
TTITLE16=MICKEY WOODS - Poor Sam Jones
TTITLE17=MICKEY WOODS - They rode through the valley
TTITLE18=RICHARD WYLIE and HIS BAND - Money (that's what I want)
TTITLE19=RICHARD WYLIE and HIS BAND - I'll still be around
TTITLE20=THE SATINTONES - Tomorrow and always [without strings]
TTITLE21=THE SATINTONES - A love that can never be
TTITLE22=THE SATINTONES - Tomorrow and always [with strings]
TTITLE23=THE CONTOURS - Whole lotta woman [national version]
TTITLE24=GINO PARKS - Blibberin' blabbin' blues
TTITLE25=GINO PARKS - Don't say bye bye
EXTD=
EXTT0=
EXTT1=
EXTT2=
EXTT3=
EXTT4=
EXTT5=
EXTT6=
EXTT7=
EXTT8=
EXTT9=
EXTT10=
EXTT11=
EXTT12=
EXTT13=
EXTT14=
EXTT15=
EXTT16=
EXTT17=
EXTT18=
EXTT19=
EXTT20=
EXTT21=
EXTT22=
EXTT23=
EXTT24=
EXTT25=
PLAYORDER=
